#!OML:ASF H:\Terrain\Walking\May29\JustinRory\rory.ASF
:FULLY-SPECIFIED
:DEGREES
370
root 11.3769 10.1808 11.5837 -27.8419 -21.0494 -2.55316
lowerback 41.349 -4.61798 -12.1372
upperback 15.2831 -11.1607 -1.74925
thorax -0.759373 -6.48322 7.92418
lowerneck 12.834 -27.8277 -14.2467
upperneck -21.2018 -36.9966 35.3074
head 1.38399 -20.7862 10.6101
rclavicle 2.74323e-014 6.83819e-014
rhumerus -20.3212 56.4429 -96.3896
rradius 42.9558
rwrist -36.0754
rhand 15.0018 13.3974
rfingers 7.12502
rthumb 39.8534 -11.8727
lclavicle 2.74323e-014 6.83819e-014
lhumerus -64.9893 -22.8121 109.982
lradius 66.594
lwrist 78.6747
lhand -16.9855 29.6518
lfingers 7.12502
lthumb 9.24929 59.4289
rfemur -67.1355 -4.24671 30.3569
rtibia 110.878
rfoot -8.18923 -5.19574
rtoes 1.78583
lfemur -63.1349 22.6346 9.63955
ltibia 109.742
lfoot -3.28038 -6.86987
ltoes -13.4932
371
root 11.377 10.1736 11.564 -28.0918 -21.1182 -2.73236
lowerback 41.4437 -4.82766 -11.7895
upperback 15.2859 -11.3009 -1.73019
thorax -0.821746 -6.53457 7.83105
lowerneck 13.4023 -27.7153 -14.5292
upperneck -21.821 -36.8186 35.6857
head 1.2313 -20.7852 10.8929
rclavicle 6.36111e-014 -1.90833e-014
rhumerus -20.4688 56.9354 -96.3874
rradius 43.1871
rwrist -36.245
rhand 13.1874 13.8893
rfingers 7.12502
rthumb 38.1428 -11.8709
lclavicle 6.36111e-014 -1.90833e-014
lhumerus -64.9012 -22.4765 109.938
lradius 66.5423
lwrist 79.1629
lhand -10.9176 27.9537
lfingers 7.12502
lthumb 15.0999 57.3829
rfemur -67.2338 -4.14596 30.2618
rtibia 111.129
rfoot -7.38945 -4.1587
rtoes 2.48371
lfemur -63.8978 23.0794 9.26753
ltibia 110.167
lfoot -1.33725 -5.19572
ltoes -7.03859
372
root 11.3752 10.1871 11.5412 -28.7996 -20.7065 -2.00547
lowerback 41.6215 -4.79187 -12.2628
upperback 15.3619 -11.4734 -1.92407
thorax -0.704491 -6.64649 7.89819
lowerneck 13.6239 -27.7958 -14.7354
upperneck -22.1237 -36.9293 35.9066
head 1.22782 -20.8745 10.9739
rclavicle -1.18078e-013 6.36111e-015
rhumerus -20.284 57.1491 -96.3117
rradius 43.2229
rwrist -36.4018
rhand 12.45 13.7869
rfingers 7.12502
rthumb 37.4462 -12.1608
lclavicle -1.18078e-013 6.36111e-015
lhumerus -64.6285 -22.3733 109.824
lradius 66.4503
lwrist 79.4749
lhand -14.2985 27.7508
lfingers 7.12502
lthumb 11.8413 57.396
rfemur -67.3703 -4.40674 28.9358
rtibia 111.381
rfoot -6.75896 -2.46607
rtoes 3.97175
lfemur -64.2234 22.969 7.72801
ltibia 110.417
lfoot 0.352774 -2.72791
ltoes 1.76992
373
root 11.378 10.1923 11.5212 -29.3186 -20.1674 -0.999658
lowerback 41.842 -4.6602 -13.1644
upperback 15.2227 -11.7057 -2.06894
thorax -0.733181 -6.78457 8.25479
lowerneck 13.6711 -27.8194 -15.1821
upperneck -21.8462 -37.0922 35.9124
head 1.42222 -20.9123 10.9161
rclavicle -2.22639e-014 -2.06736e-014
rhumerus -20.4568 57.6206 -96.4338
rradius 43.2785
rwrist -36.6898
rhand 13.1459 13.0523
rfingers 7.12502
rthumb 38.1036 -12.7187
lclavicle -2.22639e-014 -2.06736e-014
lhumerus -64.304 -22.0041 109.656
lradius 66.2502
lwrist 79.0692
lhand -14.3127 27.4048
lfingers 7.12502
lthumb 11.8276 57.0508
rfemur -67.942 -4.79548 27.3457
rtibia 111.768
rfoot -5.85394 -0.734053
rtoes -0.825654
lfemur -64.8165 22.7303 5.72819
ltibia 110.631
lfoot 1.12103 -0.806656
ltoes 8.1059
374
root 11.3686 10.1649 11.5178 -29.1194 -20.9718 -1.77071
lowerback 41.81 -4.76534 -12.5948
upperback 15.167 -11.6082 -1.77022
thorax -0.86007 -6.72202 8.28721
lowerneck 13.6356 -27.6805 -15.5801
upperneck -21.4924 -37.0243 35.7685
head 1.55581 -20.8194 10.8738
rclavicle -5.56597e-014 1.43125e-014
rhumerus -20.7668 58.3229 -96.5029
rradius 43.3532
rwrist -36.8644
rhand 13.5436 13.489
rfingers 7.12502
rthumb 38.479 -12.1783
lclavicle -5.56597e-014 1.43125e-014
lhumerus -64.0048 -21.4108 109.471
lradius 66.0621
lwrist 78.3626
lhand -15.1013 26.3855
lfingers 7.12502
lthumb 11.067 56.0737
rfemur -68.3039 -3.96088 28.0772
rtibia 111.888
rfoot -4.66125 0.398572
rtoes -1.50242
lfemur -65.6247 23.9582 6.44238
ltibia 110.99
lfoot 1.88728 -0.62628
ltoes 13.9331
375
root 11.3614 10.1527 11.5071 -29.1985 -21.4196 -2.02432
lowerback 41.5143 -4.84926 -12.269
upperback 15.3938 -11.5502 -1.78496
thorax -0.596603 -6.7179 8.0566
lowerneck 13.2225 -27.7029 -15.1302
upperneck -21.5091 -36.9366 35.5428
head 1.45074 -20.7584 10.7768
rclavicle -1.78111e-013 5.08889e-014
rhumerus -20.3578 58.902 -96.3247
rradius 43.2448
rwrist -37.1152
rhand 12.5028 15.2415
rfingers 7.12502
rthumb 37.4961 -10.693
lclavicle -1.78111e-013 5.08889e-014
lhumerus -63.5524 -21.2027 108.972
lradius 66.0238
lwrist 77.8249
lhand -17.7705 25.501
lfingers 7.12502
lthumb 8.49179 55.3103
rfemur -68.7015 -3.36685 28.0949
rtibia 111.92
rfoot -3.31613 1.65314
rtoes 0.588848
lfemur -66.1796 24.7651 6.46647
ltibia 111.262
lfoot 2.15138 -0.755703
ltoes 18.7919
376
root 11.3701 10.1626 11.4858 -29.5473 -21.0825 -1.0649
lowerback 41.2007 -4.80434 -12.717
upperback 15.4842 -11.6394 -2.15599
thorax -0.369737 -6.77948 7.8621
lowerneck 13.0323 -27.8695 -14.455
upperneck -21.8269 -36.9776 35.3937
head 1.22914 -20.8094 10.7244
rclavicle 3.33958e-014 -5.725e-014
rhumerus -19.9771 59.1025 -96.3374
rradius 43.1102
rwrist -37.1736
rhand 10.4127 16.3937
rfingers 7.12502
rthumb 35.5177 -10.0399
lclavicle 3.33958e-014 -5.725e-014
lhumerus -63.2994 -21.3735 108.598
lradius 66.017
lwrist 77.0973
lhand -17.8903 25.7923
lfingers 7.12502
lthumb 8.37624 55.6062
rfemur -69.5675 -3.38308 26.4878
rtibia 112.014
rfoot -2.03529 3.60992
rtoes 0.34139
lfemur -66.7586 24.663 4.71622
ltibia 111.42
lfoot 1.73007 -0.817853
ltoes 20.8538
377
root 11.3789 10.1633 11.4731 -29.8522 -21.0538 -0.384229
lowerback 41.1934 -4.70681 -13.1575
upperback 15.3786 -11.7057 -2.32397
thorax -0.419203 -6.81236 7.91696
lowerneck 13.2395 -27.8529 -14.0648
upperneck -22.2334 -36.8232 35.2032
head 0.928243 -20.7725 10.8021
rclavicle -6.36111e-015 -1.59028e-015
rhumerus -19.6973 59.3415 -96.1525
rradius 43.2414
rwrist -37.7288
rhand 10.4629 15.8436
rfingers 7.12502
rthumb 35.5653 -10.5785
lclavicle -6.36111e-015 -1.59028e-015
lhumerus -63.2621 -21.2507 108.555
lradius 66.071
lwrist 76.7054
lhand -16.9847 26.6421
lfingers 7.12502
lthumb 9.25015 56.4192
rfemur -70.2375 -3.21253 25.2914
rtibia 112.068
rfoot -1.13416 5.39687
rtoes -1.04981
lfemur -67.1627 24.7764 3.56173
ltibia 111.523
lfoot 0.957405 -1.38329
ltoes 19.6357
378
root 11.3788 10.1568 11.4665 -30.2387 -21.1352 -0.134483
lowerback 41.3788 -4.66253 -13.5053
upperback 15.3322 -11.825 -2.31619
thorax -0.433148 -6.89163 8.13447
lowerneck 13.3803 -27.6785 -14.0267
upperneck -22.4078 -36.549 35.0582
head 0.758699 -20.645 10.8892
rclavicle -1.84075e-013 1.25632e-013
rhumerus -19.3146 60.4058 -95.838
rradius 43.0754
rwrist -38.2925
rhand 9.90477 16.5105
rfingers 7.12502
rthumb 35.036 -10.0371
lclavicle -1.84075e-013 1.25632e-013
lhumerus -63.1273 -20.8054 108.532
lradius 66.2263
lwrist 76.6008
lhand -20.0677 24.769
lfingers 7.12502
lthumb 6.27449 54.656
rfemur -70.3947 -2.96589 24.4135
rtibia 112.025
rfoot -0.306492 6.71591
rtoes 1.79593
lfemur -67.2286 24.8979 3.03953
ltibia 111.54
lfoot 0.12285 -2.18672
ltoes 16.3956
379
root 11.3767 10.153 11.4605 -30.456 -21.4133 -0.408073
lowerback 41.4972 -4.74306 -13.0545
upperback 15.3774 -11.77 -2.27391
thorax -0.510753 -6.84408 7.96437
lowerneck 13.3979 -27.6631 -14.3489
upperneck -22.1706 -36.6216 35.1858
head 0.932048 -20.6608 10.8783
rclavicle -4.81059e-014 -1.74931e-014
rhumerus -18.8055 60.5257 -95.4127
rradius 42.7136
rwrist -38.7877
rhand 9.94312 16.9093
rfingers 7.12502
rthumb 35.0724 -9.62986
lclavicle -4.81059e-014 -1.74931e-014
lhumerus -63.1243 -20.9367 108.645
lradius 66.4836
lwrist 76.5199
lhand -22.2569 24.1658
lfingers 7.12502
lthumb 4.16068 54.1049
rfemur -70.508 -2.56345 24.0309
rtibia 111.806
rfoot 0.830168 7.80953
rtoes 5.71468
lfemur -67.2775 25.0933 3.14903
ltibia 111.516
lfoot -0.672091 -3.29614
ltoes 13.4527
380
root 11.375 10.1428 11.4642 -30.5089 -22.0541 -0.987138
lowerback 41.5068 -4.85886 -12.1084
upperback 15.4913 -11.5524 -2.25976
thorax -0.609262 -6.69085 7.47691
lowerneck 13.3682 -27.7836 -14.4073
upperneck -22.0306 -36.8202 35.3661
head 1.07326 -20.7608 10.8413
rclavicle 6.75868e-015 -2.22639e-014
rhumerus -18.4273 60.1754 -95.1727
rradius 42.4799
rwrist -39.227
rhand 12.7444 14.7359
rfingers 7.12502
rthumb 37.7244 -11.1378
lclavicle 6.75868e-015 -2.22639e-014
lhumerus -63.0289 -21.2323 108.535
lradius 66.7245
lwrist 76.2895
lhand -24.3591 25.1327
lfingers 7.12502
lthumb 2.13055 55.1019
rfemur -70.4364 -2.08393 24.5093
rtibia 111.81
rfoot 0.158058 8.27962
rtoes -2.37135
lfemur -67.568 25.6143 3.78871
ltibia 111.635
lfoot -1.32002 -4.28898
ltoes 11.6138
381
root 11.3759 10.148 11.4541 -30.659 -22.363 -1.05936
lowerback 41.4662 -4.92346 -11.7771
upperback 15.5958 -11.5083 -2.35564
thorax -0.570741 -6.65743 7.19814
lowerneck 13.2545 -27.8994 -14.0421
upperneck -22.2323 -36.875 35.3632
head 0.972174 -20.8123 10.8209
rclavicle -1.48293e-013 3.02153e-014
rhumerus -17.9643 60.25 -95.0011
rradius 42.2239
rwrist -39.7555
rhand 17.4768 10.8914
rfingers 7.12502
rthumb 42.1777 -13.6388
lclavicle -1.48293e-013 3.02153e-014
lhumerus -62.6814 -21.1932 108.081
lradius 66.8733
lwrist 75.8452
lhand -25.5263 26.7384
lfingers 7.12502
lthumb 1.00325 56.7158
rfemur -70.4313 -1.54185 24.0996
rtibia 111.504
rfoot -0.0362077 8.19814
rtoes -2.62791
lfemur -67.7896 25.8467 3.61908
ltibia 111.614
lfoot -1.89156 -4.71449
ltoes 10.2618
382
root 11.3791 10.1519 11.4421 -30.8865 -22.2766 -0.77435
lowerback 41.495 -4.91366 -12.0812
upperback 15.5829 -11.623 -2.38025
thorax -0.520387 -6.73394 7.34715
lowerneck 13.2523 -27.8765 -14.0288
upperneck -22.3369 -36.8206 35.2939
head 0.911284 -20.7843 10.8314
rclavicle 7.15625e-015 -1.74931e-014
rhumerus -17.5995 60.3943 -94.7587
rradius 42.0634
rwrist -40.1458
rhand 20.3455 8.26831
rfingers 7.12502
rthumb 44.8568 -15.2875
lclavicle 7.15625e-015 -1.74931e-014
lhumerus -62.4503 -20.9486 107.845
lradius 67.0378
lwrist 75.8924
lhand -25.9681 25.9337
lfingers 7.12502
lthumb 0.576539 55.9127
rfemur -70.4853 -1.36039 23.171
rtibia 111.276
rfoot -0.478962 7.90627
rtoes -2.55486
lfemur -67.9766 25.7361 2.79211
ltibia 111.485
lfoot -2.65373 -5.33693
ltoes 8.46511
